<mxfile host="65bd71144e">
    <diagram id="uOpMOtsDTDhDNFPdI-n_" name="Page-1">
        <mxGraphModel dx="1204" dy="431" grid="1" gridSize="10" guides="1" tooltips="1" connect="1" arrows="1" fold="1" page="1" pageScale="1" pageWidth="850" pageHeight="1100" math="0" shadow="0">
            <root>
                <mxCell id="0"/>
                <mxCell id="1" parent="0"/>
                <mxCell id="3" value="" style="strokeWidth=1;shadow=0;dashed=0;align=center;html=1;shape=mxgraph.mockup.containers.browserWindow;rSize=0;strokeColor=#666666;strokeColor2=#008cff;strokeColor3=#c4c4c4;mainText=,;recursiveResize=0;" vertex="1" parent="1">
                    <mxGeometry x="10" y="50" width="850" height="782.4" as="geometry"/>
                </mxCell>
                <mxCell id="4" value="Page 2" style="strokeWidth=1;shadow=0;dashed=0;align=center;html=1;shape=mxgraph.mockup.containers.anchor;fontSize=17;fontColor=#666666;align=left;" vertex="1" parent="3">
                    <mxGeometry x="60" y="12" width="110" height="26" as="geometry"/>
                </mxCell>
                <mxCell id="5" value="http://localhost:3000/nhanvien" style="strokeWidth=1;shadow=0;dashed=0;align=center;html=1;shape=mxgraph.mockup.containers.anchor;rSize=0;fontSize=17;fontColor=#666666;align=left;" vertex="1" parent="3">
                    <mxGeometry x="130" y="60" width="250" height="26" as="geometry"/>
                </mxCell>
                <mxCell id="6" value="LOGO" style="rounded=1;whiteSpace=wrap;html=1;" vertex="1" parent="3">
                    <mxGeometry x="20" y="120" width="120" height="50" as="geometry"/>
                </mxCell>
                <mxCell id="7" value="Trang Chủ" style="rounded=1;whiteSpace=wrap;html=1;" vertex="1" parent="3">
                    <mxGeometry x="230" y="120" width="120" height="50" as="geometry"/>
                </mxCell>
                <mxCell id="9" value="Nhân Viên" style="rounded=1;whiteSpace=wrap;html=1;fillColor=#f5f5f5;fontColor=#333333;strokeColor=#666666;" vertex="1" parent="3">
                    <mxGeometry x="350" y="120" width="120" height="50" as="geometry"/>
                </mxCell>
                <mxCell id="8" value="Phòng Ban" style="rounded=1;whiteSpace=wrap;html=1;" vertex="1" parent="3">
                    <mxGeometry x="470" y="120" width="120" height="50" as="geometry"/>
                </mxCell>
                <mxCell id="10" value="Bảng Lương" style="rounded=1;whiteSpace=wrap;html=1;" vertex="1" parent="3">
                    <mxGeometry x="590" y="120" width="120" height="50" as="geometry"/>
                </mxCell>
                <mxCell id="18" value="Tên nhân viên" style="verticalLabelPosition=bottom;shadow=0;dashed=0;align=center;html=1;verticalAlign=top;strokeWidth=1;shape=mxgraph.mockup.containers.userMale;strokeColor=#666666;strokeColor2=#008cff;" vertex="1" parent="3">
                    <mxGeometry x="150" y="250" width="100" height="100" as="geometry"/>
                </mxCell>
                <mxCell id="24" value="Tên nhân viên" style="verticalLabelPosition=bottom;shadow=0;dashed=0;align=center;html=1;verticalAlign=top;strokeWidth=1;shape=mxgraph.mockup.containers.userMale;strokeColor=#666666;strokeColor2=#008cff;" vertex="1" parent="3">
                    <mxGeometry x="420" y="250" width="100" height="100" as="geometry"/>
                </mxCell>
                <mxCell id="23" value="Tên nhân viên" style="verticalLabelPosition=bottom;shadow=0;dashed=0;align=center;html=1;verticalAlign=top;strokeWidth=1;shape=mxgraph.mockup.containers.userMale;strokeColor=#666666;strokeColor2=#008cff;" vertex="1" parent="3">
                    <mxGeometry x="290" y="250" width="100" height="100" as="geometry"/>
                </mxCell>
                <mxCell id="22" value="Tên nhân viên" style="verticalLabelPosition=bottom;shadow=0;dashed=0;align=center;html=1;verticalAlign=top;strokeWidth=1;shape=mxgraph.mockup.containers.userMale;strokeColor=#666666;strokeColor2=#008cff;" vertex="1" parent="3">
                    <mxGeometry x="560" y="250" width="100" height="100" as="geometry"/>
                </mxCell>
                <mxCell id="21" value="Tên nhân viên" style="verticalLabelPosition=bottom;shadow=0;dashed=0;align=center;html=1;verticalAlign=top;strokeWidth=1;shape=mxgraph.mockup.containers.userMale;strokeColor=#666666;strokeColor2=#008cff;" vertex="1" parent="3">
                    <mxGeometry x="690" y="250" width="100" height="100" as="geometry"/>
                </mxCell>
                <mxCell id="20" value="Tên nhân viên" style="verticalLabelPosition=bottom;shadow=0;dashed=0;align=center;html=1;verticalAlign=top;strokeWidth=1;shape=mxgraph.mockup.containers.userMale;strokeColor=#666666;strokeColor2=#008cff;" vertex="1" parent="3">
                    <mxGeometry x="560" y="380" width="100" height="100" as="geometry"/>
                </mxCell>
                <mxCell id="19" value="Tên nhân viên" style="verticalLabelPosition=bottom;shadow=0;dashed=0;align=center;html=1;verticalAlign=top;strokeWidth=1;shape=mxgraph.mockup.containers.userMale;strokeColor=#666666;strokeColor2=#008cff;" vertex="1" parent="3">
                    <mxGeometry x="20" y="250" width="100" height="100" as="geometry"/>
                </mxCell>
                <mxCell id="28" value="Tên nhân viên" style="verticalLabelPosition=bottom;shadow=0;dashed=0;align=center;html=1;verticalAlign=top;strokeWidth=1;shape=mxgraph.mockup.containers.userMale;strokeColor=#666666;strokeColor2=#008cff;" vertex="1" parent="3">
                    <mxGeometry x="20" y="380" width="100" height="100" as="geometry"/>
                </mxCell>
                <mxCell id="27" value="Tên nhân viên" style="verticalLabelPosition=bottom;shadow=0;dashed=0;align=center;html=1;verticalAlign=top;strokeWidth=1;shape=mxgraph.mockup.containers.userMale;strokeColor=#666666;strokeColor2=#008cff;" vertex="1" parent="3">
                    <mxGeometry x="150" y="380" width="100" height="100" as="geometry"/>
                </mxCell>
                <mxCell id="26" value="Tên nhân viên" style="verticalLabelPosition=bottom;shadow=0;dashed=0;align=center;html=1;verticalAlign=top;strokeWidth=1;shape=mxgraph.mockup.containers.userMale;strokeColor=#666666;strokeColor2=#008cff;" vertex="1" parent="3">
                    <mxGeometry x="290" y="380" width="100" height="100" as="geometry"/>
                </mxCell>
                <mxCell id="25" value="Tên nhân viên" style="verticalLabelPosition=bottom;shadow=0;dashed=0;align=center;html=1;verticalAlign=top;strokeWidth=1;shape=mxgraph.mockup.containers.userMale;strokeColor=#666666;strokeColor2=#008cff;" vertex="1" parent="3">
                    <mxGeometry x="420" y="380" width="100" height="100" as="geometry"/>
                </mxCell>
                <mxCell id="29" value="Tên nhân viên" style="verticalLabelPosition=bottom;shadow=0;dashed=0;align=center;html=1;verticalAlign=top;strokeWidth=1;shape=mxgraph.mockup.containers.userMale;strokeColor=#666666;strokeColor2=#008cff;" vertex="1" parent="3">
                    <mxGeometry x="690" y="380" width="100" height="100" as="geometry"/>
                </mxCell>
                <mxCell id="32" value="Tìm nhân viên" style="strokeWidth=1;shadow=0;dashed=0;align=center;html=1;shape=mxgraph.mockup.forms.searchBox;strokeColor=#999999;mainText=;strokeColor2=#008cff;fontColor=#666666;fontSize=17;align=left;spacingLeft=3;" vertex="1" parent="3">
                    <mxGeometry x="660" y="190" width="130" height="30" as="geometry"/>
                </mxCell>
                <mxCell id="33" value="" style="line;strokeWidth=2;html=1;" vertex="1" parent="3">
                    <mxGeometry x="40" y="550" width="770" height="10" as="geometry"/>
                </mxCell>
                <mxCell id="34" value="&lt;font style=&quot;font-size: 15px&quot;&gt;Danh Sách Nhân viên&lt;/font&gt;" style="text;spacingTop=-5;whiteSpace=wrap;html=1;align=left;fontSize=12;fontFamily=Helvetica;fillColor=none;strokeColor=none;" vertex="1" parent="3">
                    <mxGeometry x="20" y="190" width="160" height="50" as="geometry"/>
                </mxCell>
                <mxCell id="35" value="&lt;font style=&quot;font-size: 15px&quot;&gt;Liên kết&lt;/font&gt;" style="text;spacingTop=-5;whiteSpace=wrap;html=1;align=left;fontSize=12;fontFamily=Helvetica;fillColor=none;strokeColor=none;" vertex="1" parent="3">
                    <mxGeometry x="50" y="580" width="160" height="20" as="geometry"/>
                </mxCell>
                <mxCell id="36" value="&lt;font style=&quot;font-size: 15px&quot;&gt;Về chúng tôi&lt;/font&gt;" style="text;spacingTop=-5;whiteSpace=wrap;html=1;align=left;fontSize=12;fontFamily=Helvetica;fillColor=none;strokeColor=none;" vertex="1" parent="3">
                    <mxGeometry x="230" y="580" width="160" height="20" as="geometry"/>
                </mxCell>
                <mxCell id="37" value="&lt;span style=&quot;background-color: rgb(244 , 242 , 255)&quot;&gt;Trang chủ&lt;/span&gt;" style="shape=rectangle;strokeColor=none;fillColor=none;linkText=;fontSize=17;fontColor=#0000ff;fontStyle=4;html=1;align=center;" vertex="1" parent="3">
                    <mxGeometry x="5" y="610" width="150" height="30" as="geometry"/>
                </mxCell>
                <mxCell id="43" value="&lt;span style=&quot;background-color: rgb(244 , 242 , 255)&quot;&gt;Nhân viên&lt;/span&gt;" style="shape=rectangle;strokeColor=none;fillColor=none;linkText=;fontSize=17;fontColor=#0000ff;fontStyle=4;html=1;align=center;" vertex="1" parent="3">
                    <mxGeometry x="5" y="640" width="150" height="30" as="geometry"/>
                </mxCell>
                <mxCell id="44" value="&lt;span style=&quot;background-color: rgb(244 , 242 , 255)&quot;&gt;Phòng Ban&lt;/span&gt;" style="shape=rectangle;strokeColor=none;fillColor=none;linkText=;fontSize=17;fontColor=#0000ff;fontStyle=4;html=1;align=center;" vertex="1" parent="3">
                    <mxGeometry x="5" y="670" width="150" height="30" as="geometry"/>
                </mxCell>
                <mxCell id="45" value="&lt;span style=&quot;background-color: rgb(244 , 242 , 255)&quot;&gt;Bảng Lương&lt;/span&gt;" style="shape=rectangle;strokeColor=none;fillColor=none;linkText=;fontSize=17;fontColor=#0000ff;fontStyle=4;html=1;align=center;" vertex="1" parent="3">
                    <mxGeometry x="5" y="700" width="150" height="30" as="geometry"/>
                </mxCell>
                <mxCell id="47" value="" style="dashed=0;outlineConnect=0;html=1;align=center;labelPosition=center;verticalLabelPosition=bottom;verticalAlign=top;shape=mxgraph.webicons.google_plus;fillColor=#F24B46;gradientColor=#AD3832;labelBackgroundColor=#F4F2FF;fontSize=15;fontColor=#0000FF;" vertex="1" parent="3">
                    <mxGeometry x="470" y="600" width="50" height="50" as="geometry"/>
                </mxCell>
                <mxCell id="48" value="" style="dashed=0;outlineConnect=0;html=1;align=center;labelPosition=center;verticalLabelPosition=bottom;verticalAlign=top;shape=mxgraph.webicons.facebook;fillColor=#6294E4;gradientColor=#1A2665;labelBackgroundColor=#F4F2FF;fontSize=15;fontColor=#0000FF;" vertex="1" parent="3">
                    <mxGeometry x="530" y="600" width="50" height="50" as="geometry"/>
                </mxCell>
                <mxCell id="49" value="" style="dashed=0;outlineConnect=0;html=1;align=center;labelPosition=center;verticalLabelPosition=bottom;verticalAlign=top;shape=mxgraph.webicons.linkedin;fillColor=#0095DB;gradientColor=#006391;labelBackgroundColor=#F4F2FF;fontSize=15;fontColor=#0000FF;" vertex="1" parent="3">
                    <mxGeometry x="590" y="600" width="46" height="50" as="geometry"/>
                </mxCell>
                <mxCell id="50" value="" style="dashed=0;outlineConnect=0;html=1;align=center;labelPosition=center;verticalLabelPosition=bottom;verticalAlign=top;shape=mxgraph.webicons.twitter;fillColor=#49EAF7;gradientColor=#137BD0;labelBackgroundColor=#F4F2FF;fontSize=15;fontColor=#0000FF;" vertex="1" parent="3">
                    <mxGeometry x="649.9999999999999" y="600" width="50.6" height="50" as="geometry"/>
                </mxCell>
                <mxCell id="51" value="" style="dashed=0;outlineConnect=0;html=1;align=center;labelPosition=center;verticalLabelPosition=bottom;verticalAlign=top;shape=mxgraph.weblogos.youtube_2;fillColor=#FF2626;gradientColor=#B5171F;labelBackgroundColor=#F4F2FF;fontSize=15;fontColor=#0000FF;" vertex="1" parent="3">
                    <mxGeometry x="715" y="600" width="50" height="50" as="geometry"/>
                </mxCell>
                <mxCell id="52" value="" style="dashed=0;outlineConnect=0;html=1;align=center;labelPosition=center;verticalLabelPosition=bottom;verticalAlign=top;shape=mxgraph.weblogos.gmail;labelBackgroundColor=#F4F2FF;fontSize=15;fontColor=#0000FF;" vertex="1" parent="3">
                    <mxGeometry x="780" y="600" width="50" height="50" as="geometry"/>
                </mxCell>
            </root>
        </mxGraphModel>
    </diagram>
</mxfile>